<svg data-v-fde0c5aa="" xmlns="http://www.w3.org/2000/svg" viewBox="0 0 300 300" class="iconLeft"><!----><defs data-v-fde0c5aa=""><!----></defs><rect data-v-fde0c5aa="" fill="transparent" x="0" y="0" width="300px" height="300px" class="logo-background-square"></rect><defs data-v-fde0c5aa=""><!----></defs><g data-v-fde0c5aa="" id="219cd350-343c-43cd-9304-07e02b71d6f4" fill="#000000" transform="matrix(2.307508471583396,0,0,2.307508471583396,129.2565668277657,130.90536662743335)"><path d="M8.95 6.53L7.35 11.33L5.88 6.53L4.70 6.53L3.22 11.33L1.60 6.53L0.10 6.53L2.61 13.15L3.79 13.15L5.29 8.17L6.78 13.15L7.96 13.15L10.47 6.53ZM17.75 9.70C17.75 7.73 16.42 6.36 14.50 6.36C12.50 6.36 11.08 7.89 11.08 9.84C11.08 11.80 12.48 13.31 14.66 13.31C15.81 13.31 16.77 12.92 17.37 12.25L16.39 11.46C15.97 11.94 15.40 12.19 14.64 12.19C13.40 12.19 12.67 11.33 12.57 10.15L17.75 10.15ZM14.50 7.50C15.53 7.50 16.20 8.12 16.35 9.17L12.63 9.17C12.83 8.17 13.52 7.50 14.50 7.50ZM22.74 6.36C21.79 6.36 21.06 6.72 20.55 7.32L20.55 3.24L19.13 3.24L19.13 13.15L20.29 13.15L20.46 12.25C20.97 12.91 21.74 13.31 22.74 13.31C24.46 13.31 25.83 12.00 25.83 9.84C25.83 7.69 24.46 6.36 22.74 6.36ZM22.40 12.12C21.16 12.12 20.36 11.14 20.36 9.84C20.36 8.55 21.16 7.55 22.40 7.55C23.60 7.55 24.38 8.55 24.38 9.84C24.38 11.14 23.60 12.12 22.40 12.12ZM32.16 3.24L32.16 7.32C31.65 6.72 30.92 6.36 29.97 6.36C28.25 6.36 26.88 7.69 26.88 9.84C26.88 12.00 28.25 13.31 29.97 13.31C30.96 13.31 31.73 12.91 32.24 12.25L32.42 13.15L33.57 13.15L33.57 3.24ZM30.30 12.12C29.11 12.12 28.32 11.14 28.32 9.84C28.32 8.55 29.11 7.55 30.30 7.55C31.54 7.55 32.35 8.55 32.35 9.84C32.35 11.14 31.54 12.12 30.30 12.12ZM41.62 9.70C41.62 7.73 40.29 6.36 38.37 6.36C36.37 6.36 34.96 7.89 34.96 9.84C34.96 11.80 36.36 13.31 38.53 13.31C39.68 13.31 40.64 12.92 41.24 12.25L40.26 11.46C39.84 11.94 39.27 12.19 38.51 12.19C37.27 12.19 36.55 11.33 36.44 10.15L41.62 10.15ZM38.37 7.50C39.40 7.50 40.08 8.12 40.22 9.17L36.50 9.17C36.71 8.17 37.39 7.50 38.37 7.50ZM47.51 6.53L45.59 11.48L43.65 6.53L42.15 6.53L45.00 13.15L46.17 13.15L49.03 6.53ZM50.76 5.26C51.28 5.26 51.68 4.86 51.68 4.36C51.68 3.86 51.28 3.46 50.76 3.46C50.25 3.46 49.85 3.86 49.85 4.36C49.85 4.86 50.25 5.26 50.76 5.26ZM50.08 13.15L51.46 13.15L51.46 6.53L50.08 6.53ZM56.47 11.93C56.38 11.99 56.15 12.06 55.87 12.06C55.42 12.06 55.14 11.80 55.14 11.20L55.14 7.67L56.54 7.67L56.54 6.53L55.14 6.53L55.14 4.64L53.73 4.64L53.73 6.53L52.85 6.53L52.85 7.67L53.73 7.67L53.73 11.32C53.73 12.91 54.72 13.27 55.53 13.27C56.06 13.27 56.48 13.17 56.66 13.08Z"></path></g><defs data-v-fde0c5aa=""><linearGradient data-v-fde0c5aa="" gradientTransform="rotate(25)" id="38b6511f-84ad-435e-9181-6c348355fbcc" x1="0%" y1="0%" x2="100%" y2="0%"><stop data-v-fde0c5aa="" offset="0%" stop-color="#085B20" stop-opacity="1"></stop><stop data-v-fde0c5aa="" offset="100%" stop-color="#41E296" stop-opacity="1"></stop></linearGradient></defs><g data-v-fde0c5aa="" id="953ff752-6c81-4f1e-94b4-178468e20ddf" stroke="none" fill="url(#38b6511f-84ad-435e-9181-6c348355fbcc)" transform="matrix(0.8498590853151388,0,0,0.8498590853151388,35.75070457342431,107.50686256377827)"><path d="M23.943 30.807L5 50.001l18.942 19.192a4.386 4.386 0 0 0 6.258.002 4.522 4.522 0 0 0 .002-6.338L18.193 50.695l-3.624 2.289 15.634-15.841a4.494 4.494 0 0 0 1.295-3.168 4.5 4.5 0 0 0-1.297-3.17 4.387 4.387 0 0 0-6.258.002zM76.057 30.808L95 50.001 76.058 69.193a4.386 4.386 0 0 1-6.258.002 4.522 4.522 0 0 1-.002-6.338l12.009-12.161 3.624 2.289-15.635-15.841a4.494 4.494 0 0 1-1.295-3.168 4.5 4.5 0 0 1 1.297-3.17 4.386 4.386 0 0 1 6.259.002zM60.899 32.352a4.492 4.492 0 0 0-2.366-2.476 4.386 4.386 0 0 0-5.825 2.288l-13.82 32.062a4.496 4.496 0 0 0-.048 3.422 4.492 4.492 0 0 0 2.366 2.476 4.386 4.386 0 0 0 5.825-2.288l13.82-32.062a4.496 4.496 0 0 0 .048-3.422z"></path></g><!----></svg>